<svg xmlns="http://www.w3.org/2000/svg" version="1.1" xmlns:xlink="http://www.w3.org/1999/xlink" xmlns:svgjs="http://svgjs.dev/svgjs" width="1500" height="1500" viewBox="0 0 1500 1500"><rect width="1500" height="1500" fill="#1b4571"></rect><g transform="matrix(0.6666666666666666,0,0,0.6666666666666666,249.39393939393938,438.5856950067477)"><svg viewBox="0 0 396 247" data-background-color="#1b4571" preserveAspectRatio="xMidYMid meet" height="935" width="1500" xmlns="http://www.w3.org/2000/svg" xmlns:xlink="http://www.w3.org/1999/xlink"><g id="tight-bounds" transform="matrix(1,0,0,1,0.2400000000000091,-0.09999999999999432)"><svg viewBox="0 0 395.52 247.2" height="247.2" width="395.52"><g><svg></svg></g><g><svg viewBox="0 0 395.52 247.2" height="247.2" width="395.52"><g transform="matrix(1,0,0,1,134.551578,47.215199999999996)"><svg viewBox="0 0 126.416844 152.7696" height="152.7696" width="126.416844"><g><svg viewBox="0 0 126.416844 152.7696" height="152.7696" width="126.416844"><g><svg viewBox="0 0 126.416844 152.7696" height="152.7696" width="126.416844"><g><svg viewBox="0 0 126.416844 152.7696" height="152.7696" width="126.416844"><g id="textblocktransform"><svg viewBox="0 0 126.416844 152.7696" height="152.7696" width="126.416844" id="textblock"><g><svg viewBox="0 0 126.416844 152.7696" height="152.7696" width="126.416844"><g transform="matrix(1,0,0,1,0,0)"><svg width="126.416844" viewBox="-1.25 -38 34.1 41" height="152.7696" data-palette-color="#ffffff"><path d="M1.75 0L10.55 0Q15.85 0 19.53-1.63 23.2-3.25 25.5-5.8L25.5-5.8Q27.8-8.35 28.83-11.45 29.85-14.55 29.85-17.5L29.85-17.5Q29.85-21.5 28.45-24.75 27.05-28 24.65-30.3L24.65-30.3Q22.25-32.55 19.05-33.77 15.85-35 12.25-35L12.25-35 1.75-35 1.75-33.05 4.9-33.05 4.9-2 1.75-2 1.75 0ZM6.95-2L6.95-33.05 12.25-33.05Q15.45-33.05 18.28-31.95 21.1-30.85 23.25-28.85L23.25-28.85Q25.4-26.8 26.63-23.93 27.85-21.05 27.85-17.5L27.85-17.5Q27.85-14.55 26.83-11.78 25.8-9 23.75-6.85L23.75-6.85Q21.7-4.65 18.57-3.33 15.45-2 11.3-2L11.3-2 6.95-2Z" opacity="1" transform="matrix(1,0,0,1,0,0)" fill="#ffffff" class="wordmark-text-0" data-fill-palette-color="primary" id="text-0"></path></svg></g></svg></g></svg></g></svg></g></svg></g></svg></g></svg></g><path d="M84.993 41.215L84.993 0 332.193 0 332.193 247.2 84.993 247.2 84.993 205.985 92.444 205.985 92.444 239.749 324.741 239.749 324.741 7.451 92.444 7.451 92.444 41.215Z" fill="#ffffff" stroke="transparent" data-fill-palette-color="tertiary"></path></svg></g><defs></defs></svg><rect width="395.52" height="247.2" fill="none" stroke="none" visibility="hidden"></rect></g></svg></g></svg>